<?xml version="1.0" encoding="UTF-8" standalone="no"?>
<svg viewBox="0 0 869 868" xmlns="http://www.w3.org/2000/svg">
  <path fill="black" fill-rule="evenodd" d="M392,720 L387,725 L387,726 L386,727 L386,729 L385,730 L385,731 L386,730 L386,729 L388,727 L388,726 L391,723 L391,722 L392,721 Z M558,632 L558,633 L557,634 L557,635 L556,636 L556,637 L555,638 L555,639 L554,640 L554,641 L553,642 L553,643 L552,644 L552,645 L551,646 L551,647 L549,649 L549,650 L547,652 L547,653 L539,661 L538,661 L536,663 L535,663 L533,665 L532,665 L531,666 L529,666 L528,667 L527,667 L526,668 L524,668 L523,669 L521,669 L520,670 L517,670 L516,671 L513,671 L512,672 L508,672 L507,673 L502,673 L501,674 L492,674 L491,675 L466,675 L465,674 L458,674 L457,673 L454,673 L455,673 L456,674 L457,674 L458,675 L459,675 L460,676 L461,676 L462,677 L463,677 L464,678 L465,678 L466,679 L467,679 L468,680 L469,680 L470,681 L471,681 L472,682 L473,682 L474,683 L475,683 L476,684 L477,684 L478,685 L479,685 L480,686 L482,686 L483,687 L484,687 L485,688 L486,688 L487,689 L489,689 L490,688 L491,688 L494,691 L494,692 L497,695 L497,696 L497,691 L498,690 L502,690 L503,691 L504,691 L505,692 L506,692 L509,695 L510,695 L511,696 L511,694 L510,693 L510,691 L509,690 L509,689 L508,688 L508,687 L509,686 L513,686 L514,687 L517,687 L515,685 L515,684 L517,682 L518,682 L519,681 L521,681 L522,680 L523,680 L524,679 L525,679 L526,678 L527,678 L528,677 L529,677 L530,676 L531,676 L533,674 L534,674 L537,671 L538,671 L544,665 L544,664 L546,662 L546,661 L547,660 L547,659 L549,657 L549,655 L550,654 L550,653 L551,652 L551,651 L552,650 L552,649 L553,648 L553,646 L554,645 L554,643 L555,642 L555,641 L556,640 L556,638 L557,637 L557,635 L558,634 Z M161,559 L161,560 L163,562 L163,563 L172,572 L173,572 L175,574 L176,574 L177,575 L178,575 L179,576 L180,576 L181,577 L182,576 L175,569 L174,569 L170,565 L169,565 L165,561 L164,561 L162,559 Z M407,455 L406,456 L405,456 L404,457 L403,457 L402,458 L401,458 L400,459 L399,459 L398,460 L397,460 L396,461 L394,461 L393,462 L392,462 L391,463 L389,463 L388,464 L387,464 L386,465 L383,465 L382,466 L380,466 L379,467 L376,467 L375,468 L372,468 L371,469 L367,469 L366,470 L361,470 L360,471 L356,471 L355,472 L354,472 L357,472 L358,473 L369,473 L370,472 L376,472 L377,471 L380,471 L381,470 L384,470 L385,469 L387,469 L388,468 L389,468 L390,467 L391,467 L392,466 L393,466 L394,465 L395,465 L396,464 L397,464 L398,463 L399,463 L401,461 L402,461 L404,459 L405,459 L408,456 L408,455 Z M147,454 L146,455 L142,455 L137,460 L137,461 L136,462 L136,464 L135,465 L135,466 L134,467 L134,469 L133,470 L133,472 L132,473 L132,477 L131,478 L131,491 L132,492 L132,495 L133,496 L133,498 L134,499 L134,500 L134,499 L135,498 L135,485 L136,484 L136,479 L137,478 L137,475 L138,474 L138,472 L139,471 L139,469 L140,468 L140,467 L144,463 L145,463 L146,462 L148,462 L150,464 L150,467 L151,468 L150,469 L150,474 L149,475 L149,482 L148,483 L148,493 L147,494 L147,515 L148,516 L148,522 L149,523 L149,524 L150,524 L150,519 L151,518 L151,512 L152,511 L152,506 L153,505 L153,500 L154,499 L154,494 L155,493 L155,489 L156,488 L156,484 L157,483 L157,480 L158,479 L158,476 L159,475 L159,473 L161,471 L161,470 L164,467 L165,467 L165,466 L164,465 L164,464 L159,459 L158,459 L156,457 L155,457 L154,456 L152,456 L151,455 L148,455 Z M542,450 L543,450 L545,452 L546,452 L547,453 L548,453 L549,454 L551,454 L552,455 L553,455 L554,456 L555,456 L556,457 L558,457 L559,458 L561,458 L562,459 L564,459 L565,460 L569,460 L570,461 L590,461 L591,460 L595,460 L596,459 L599,459 L600,458 L602,458 L603,457 L605,457 L606,456 L607,456 L608,455 L609,455 L611,453 L608,453 L607,454 L604,454 L603,455 L600,455 L599,456 L593,456 L592,457 L573,457 L572,456 L566,456 L565,455 L561,455 L560,454 L557,454 L556,453 L554,453 L553,452 L551,452 L550,451 L548,451 L547,450 Z M379,409 L378,410 L369,410 L368,411 L363,411 L362,412 L357,412 L356,413 L352,413 L351,414 L348,414 L347,415 L344,415 L343,416 L341,416 L340,417 L338,417 L337,418 L336,418 L335,419 L334,419 L333,420 L332,420 L331,421 L330,421 L328,423 L327,423 L325,425 L324,425 L313,436 L313,437 L310,440 L311,440 L312,439 L313,439 L314,438 L315,438 L317,436 L318,436 L324,430 L325,430 L329,426 L330,426 L332,424 L333,424 L334,423 L335,423 L336,422 L337,422 L338,421 L340,421 L341,420 L342,420 L343,419 L346,419 L347,418 L349,418 L350,419 L348,421 L347,421 L346,422 L345,422 L344,423 L343,423 L342,424 L341,424 L340,425 L339,425 L338,426 L337,426 L335,428 L334,428 L332,430 L331,430 L329,432 L328,432 L326,434 L325,434 L314,445 L313,445 L311,447 L320,447 L321,448 L326,448 L327,449 L330,449 L331,450 L335,450 L336,451 L337,451 L338,450 L337,450 L336,449 L335,449 L333,447 L332,447 L331,446 L330,446 L328,444 L328,443 L334,437 L335,437 L337,435 L338,435 L340,433 L341,433 L342,432 L343,432 L345,430 L346,430 L347,429 L348,429 L349,428 L350,428 L351,427 L353,427 L354,426 L355,426 L356,425 L357,425 L358,424 L360,424 L361,423 L363,423 L364,422 L366,422 L367,421 L368,421 L369,422 L369,423 L368,424 L368,427 L367,428 L367,438 L368,439 L368,441 L369,442 L369,444 L371,446 L371,447 L375,451 L374,452 L369,452 L368,453 L365,453 L376,453 L377,452 L385,452 L386,451 L392,451 L393,450 L397,450 L398,449 L404,449 L405,448 L413,448 L414,447 L420,447 L422,445 L422,444 L423,443 L423,440 L422,439 L422,437 L421,436 L421,434 L420,433 L420,431 L419,430 L419,429 L417,427 L417,426 L416,425 L416,424 L412,420 L412,419 L409,416 L408,416 L406,414 L405,414 L403,412 L401,412 L400,411 L398,411 L397,410 L392,410 L391,409 Z M405,438 L406,439 L406,440 L407,441 L407,443 L405,445 L404,445 L403,446 L402,445 L402,443 L403,442 L403,440 Z M578,395 L577,396 L571,396 L570,397 L566,397 L565,398 L562,398 L561,399 L558,399 L557,400 L556,400 L555,401 L553,401 L552,402 L551,402 L550,403 L549,403 L548,404 L547,404 L545,406 L544,406 L542,408 L541,408 L539,410 L538,410 L536,412 L535,412 L526,421 L526,422 L525,423 L525,424 L524,425 L524,426 L523,427 L523,428 L522,429 L522,432 L521,433 L521,436 L522,437 L535,437 L536,436 L553,436 L554,437 L593,437 L594,436 L598,436 L599,435 L601,435 L602,434 L603,434 L604,433 L604,432 L605,431 L607,431 L608,430 L630,430 L630,429 L628,427 L627,427 L625,425 L625,424 L623,422 L623,421 L622,420 L622,419 L621,418 L621,417 L620,416 L620,414 L619,413 L619,412 L618,411 L618,410 L617,409 L617,408 L615,406 L615,405 L610,400 L609,400 L608,399 L607,399 L606,398 L605,398 L604,397 L602,397 L601,396 L597,396 L596,395 Z M567,410 L568,409 L571,409 L572,410 L572,413 L571,414 L571,419 L572,420 L572,424 L573,425 L573,427 L574,428 L574,429 L576,431 L576,432 L578,434 L577,435 L557,435 L556,434 L546,434 L545,433 L532,433 L531,432 L532,431 L533,431 L535,429 L536,429 L541,424 L542,424 L547,419 L548,419 L550,417 L551,417 L552,416 L553,416 L554,415 L555,415 L556,414 L557,414 L558,413 L559,413 L560,412 L562,412 L563,411 L564,411 L565,410 Z M428,377 L429,378 L429,379 L430,380 L430,382 L431,383 L431,389 L432,390 L432,398 L432,397 L433,396 L433,393 L434,392 L434,386 L433,385 L433,382 L432,381 L432,380 L429,377 Z M326,359 L325,360 L323,360 L322,361 L321,361 L316,366 L315,366 L310,371 L309,371 L300,380 L300,381 L298,383 L298,384 L296,386 L296,387 L295,388 L295,389 L294,390 L294,391 L292,393 L292,394 L291,395 L291,396 L290,397 L290,398 L289,399 L289,400 L288,401 L288,402 L287,403 L287,404 L286,405 L286,407 L285,408 L285,409 L289,405 L290,405 L292,403 L293,403 L295,401 L296,401 L298,399 L299,399 L300,398 L301,398 L302,397 L303,397 L304,396 L305,396 L306,395 L307,395 L308,394 L309,394 L310,393 L311,393 L312,392 L313,392 L314,391 L316,391 L317,390 L318,390 L319,389 L322,389 L323,388 L326,388 L327,387 L342,387 L343,388 L351,388 L352,389 L357,389 L358,390 L364,390 L365,391 L370,391 L371,392 L379,392 L380,393 L391,393 L392,394 L405,394 L406,395 L416,395 L417,396 L428,396 L429,395 L428,394 L428,390 L427,389 L427,387 L426,386 L426,384 L425,383 L425,382 L422,379 L422,378 L420,376 L419,376 L417,374 L416,374 L415,373 L414,373 L413,372 L411,372 L410,371 L407,371 L406,370 L402,370 L401,369 L394,369 L393,368 L386,368 L385,367 L378,367 L377,366 L372,366 L371,365 L366,365 L365,364 L360,364 L359,363 L354,363 L353,362 L349,362 L348,361 L342,361 L341,360 L332,360 L331,359 Z M606,336 L604,338 L602,338 L601,339 L600,339 L599,340 L598,340 L597,341 L595,341 L594,342 L593,342 L592,343 L590,343 L589,344 L588,344 L587,345 L585,345 L584,346 L583,346 L582,347 L580,347 L579,348 L578,348 L577,349 L575,349 L574,350 L573,350 L572,351 L570,351 L569,352 L568,352 L567,353 L565,353 L564,354 L563,354 L562,355 L560,355 L559,356 L558,356 L557,357 L556,357 L555,358 L553,358 L552,359 L551,359 L550,360 L548,360 L547,361 L546,361 L545,362 L544,362 L543,363 L542,363 L541,364 L540,364 L539,365 L538,365 L537,366 L536,366 L535,367 L534,367 L533,368 L532,368 L531,369 L530,369 L528,371 L527,371 L527,372 L524,375 L524,376 L523,377 L522,376 L522,372 L521,373 L521,374 L520,375 L520,376 L519,377 L519,379 L518,380 L518,382 L517,383 L517,385 L516,386 L516,388 L515,389 L515,390 L514,391 L514,393 L513,394 L513,395 L512,396 L512,397 L510,399 L510,400 L509,401 L509,402 L508,403 L508,404 L506,406 L506,407 L505,408 L505,409 L504,410 L504,411 L503,412 L503,414 L502,415 L502,432 L503,433 L503,436 L504,437 L504,440 L505,441 L505,443 L506,444 L506,446 L507,447 L507,449 L508,450 L508,452 L509,453 L509,454 L510,455 L510,457 L511,458 L511,460 L512,461 L512,463 L513,464 L513,466 L514,467 L514,468 L515,469 L515,471 L516,472 L516,473 L517,474 L517,476 L518,477 L518,478 L519,479 L519,480 L520,481 L520,482 L521,483 L521,484 L522,485 L522,486 L523,487 L523,488 L524,489 L524,490 L525,491 L525,492 L526,493 L526,494 L527,495 L527,496 L528,497 L528,498 L529,499 L529,500 L530,501 L530,502 L532,504 L533,504 L534,505 L537,505 L538,506 L540,506 L541,507 L542,507 L548,513 L548,514 L550,516 L550,517 L551,518 L551,520 L552,521 L552,523 L553,524 L553,534 L552,535 L552,536 L551,537 L551,538 L547,542 L546,542 L545,543 L536,543 L535,542 L533,542 L532,541 L528,541 L519,550 L518,550 L514,554 L513,554 L512,555 L511,555 L509,557 L507,557 L506,558 L504,558 L503,559 L493,559 L492,558 L491,558 L490,557 L489,557 L485,553 L484,553 L482,551 L481,551 L480,550 L478,550 L477,549 L475,549 L474,548 L468,548 L467,547 L463,547 L462,548 L454,548 L453,549 L451,549 L450,550 L448,550 L447,551 L446,551 L445,552 L443,552 L442,553 L437,553 L436,552 L434,552 L432,550 L431,550 L429,548 L429,547 L426,544 L426,543 L425,542 L425,540 L424,539 L424,533 L423,532 L423,528 L424,527 L424,522 L425,521 L425,519 L426,518 L426,516 L428,514 L428,513 L433,508 L431,508 L430,509 L429,509 L423,515 L423,516 L421,518 L421,519 L420,520 L420,521 L419,522 L419,524 L418,525 L418,528 L417,529 L417,537 L418,538 L418,541 L419,542 L419,543 L420,544 L420,545 L421,546 L421,547 L428,554 L429,554 L431,556 L432,556 L434,558 L435,558 L436,559 L437,559 L438,560 L449,560 L450,559 L451,559 L452,558 L453,558 L454,557 L455,557 L456,556 L459,556 L460,555 L467,555 L468,556 L472,556 L473,557 L476,557 L477,558 L478,558 L479,559 L481,559 L482,560 L484,560 L485,561 L487,561 L488,562 L491,562 L492,563 L494,563 L495,564 L497,564 L498,565 L498,566 L497,567 L494,567 L493,566 L491,566 L490,565 L488,565 L487,564 L484,564 L483,563 L474,563 L473,564 L471,564 L470,565 L468,565 L467,566 L465,566 L464,567 L463,567 L462,566 L462,565 L460,565 L459,566 L458,566 L457,567 L456,567 L454,569 L453,569 L452,570 L451,569 L451,567 L450,567 L448,569 L447,569 L442,574 L441,574 L440,575 L439,574 L439,571 L435,575 L433,575 L431,577 L430,577 L429,578 L428,578 L427,577 L427,576 L426,576 L424,578 L423,578 L420,581 L419,581 L417,583 L416,582 L416,579 L415,580 L414,580 L411,583 L410,583 L408,585 L407,585 L406,586 L405,586 L404,585 L403,585 L400,588 L399,587 L398,587 L395,590 L394,590 L393,591 L392,590 L392,588 L388,592 L387,592 L386,593 L383,593 L382,592 L383,591 L383,590 L385,588 L385,587 L386,586 L386,585 L387,584 L387,583 L388,582 L388,581 L389,580 L389,579 L390,578 L390,577 L391,576 L391,575 L392,574 L392,572 L393,571 L393,570 L394,569 L394,568 L395,567 L395,565 L396,564 L396,563 L397,562 L397,560 L398,559 L398,557 L399,556 L399,554 L400,553 L400,551 L395,556 L395,557 L393,559 L393,560 L390,563 L390,564 L389,565 L389,566 L387,568 L387,569 L385,571 L385,572 L384,573 L384,574 L382,576 L382,577 L381,578 L381,579 L380,580 L380,581 L378,583 L378,584 L377,585 L377,586 L376,587 L376,588 L375,589 L375,590 L374,591 L374,592 L373,593 L373,595 L372,596 L372,598 L371,599 L371,601 L370,602 L370,607 L369,608 L369,624 L370,625 L370,631 L371,632 L371,636 L372,637 L372,639 L373,640 L373,643 L374,644 L374,646 L375,647 L375,649 L376,650 L376,652 L377,653 L377,655 L378,656 L378,658 L379,659 L379,661 L380,662 L380,665 L381,666 L381,667 L382,668 L382,667 L383,666 L383,665 L384,664 L384,662 L385,661 L385,658 L386,657 L386,654 L387,653 L387,650 L388,649 L388,644 L389,643 L389,639 L390,638 L390,636 L391,635 L391,634 L394,631 L395,631 L396,630 L397,630 L398,631 L399,631 L400,632 L401,632 L402,633 L403,633 L404,634 L405,634 L406,635 L407,635 L408,636 L409,636 L410,637 L411,637 L412,638 L413,638 L414,639 L416,639 L417,640 L419,640 L420,641 L423,641 L424,642 L427,642 L428,643 L435,643 L436,644 L448,644 L449,645 L462,645 L463,646 L490,646 L491,645 L500,645 L501,644 L507,644 L508,643 L512,643 L513,642 L516,642 L517,641 L519,641 L520,640 L523,640 L524,639 L526,639 L527,638 L528,638 L529,637 L531,637 L532,636 L534,636 L535,635 L536,635 L537,634 L538,634 L539,633 L541,633 L542,632 L543,632 L544,631 L545,631 L546,630 L548,630 L549,629 L550,629 L551,628 L552,628 L553,627 L554,627 L555,626 L556,626 L562,620 L563,620 L569,614 L571,614 L572,613 L573,613 L574,612 L576,612 L580,616 L580,617 L582,619 L582,620 L584,622 L584,623 L585,624 L585,625 L586,626 L586,628 L587,629 L587,632 L588,633 L588,637 L589,638 L589,644 L590,645 L590,650 L591,651 L591,656 L592,656 L592,655 L593,654 L593,652 L594,651 L594,649 L595,648 L595,645 L596,644 L596,640 L597,639 L597,635 L598,634 L598,629 L599,628 L599,622 L600,621 L600,616 L601,615 L601,610 L602,609 L602,605 L603,604 L603,599 L604,598 L604,587 L603,586 L603,581 L602,580 L602,578 L601,577 L601,575 L600,574 L600,573 L599,572 L599,570 L597,568 L597,567 L594,564 L594,563 L592,561 L591,561 L587,557 L586,557 L583,554 L582,554 L571,543 L571,545 L573,547 L573,548 L575,550 L575,551 L577,553 L577,554 L579,556 L579,557 L581,559 L581,560 L583,562 L583,563 L585,565 L585,566 L586,567 L586,568 L588,570 L588,571 L589,572 L589,573 L590,574 L590,576 L589,577 L588,576 L587,576 L586,575 L585,575 L584,574 L583,574 L582,573 L580,573 L579,572 L578,572 L577,571 L574,571 L573,570 L570,570 L569,569 L567,569 L566,568 L564,568 L563,567 L561,567 L560,566 L559,566 L558,565 L557,565 L555,563 L554,563 L552,561 L551,561 L549,559 L548,559 L547,558 L546,558 L545,557 L543,557 L542,556 L541,556 L540,555 L538,555 L537,554 L537,553 L538,552 L541,552 L542,551 L544,551 L545,550 L547,550 L548,549 L549,549 L550,548 L551,548 L557,542 L557,541 L559,539 L559,537 L560,536 L560,534 L561,533 L561,530 L562,529 L562,528 L561,527 L561,523 L560,522 L560,520 L559,519 L559,517 L558,516 L558,515 L557,514 L557,513 L555,511 L555,510 L554,509 L554,508 L547,501 L546,501 L545,500 L544,500 L543,499 L542,499 L541,498 L539,498 L538,497 L537,497 L536,496 L535,496 L531,492 L531,491 L530,490 L530,489 L529,488 L529,487 L528,486 L528,484 L527,483 L527,481 L526,480 L526,479 L525,478 L525,476 L524,475 L524,473 L523,472 L523,470 L522,469 L522,467 L521,466 L521,465 L520,464 L520,462 L519,461 L519,459 L518,458 L518,456 L517,455 L517,453 L516,452 L516,450 L515,449 L515,447 L514,446 L514,444 L513,443 L513,441 L512,440 L512,436 L511,435 L511,429 L510,428 L510,422 L511,421 L511,417 L512,416 L512,414 L513,413 L513,412 L514,411 L514,410 L515,409 L515,408 L524,399 L525,399 L527,397 L528,397 L529,396 L530,396 L531,395 L532,395 L533,394 L534,394 L535,393 L537,393 L538,392 L539,392 L540,391 L542,391 L543,390 L545,390 L546,389 L547,389 L548,388 L550,388 L551,387 L553,387 L554,386 L556,386 L557,385 L558,385 L559,384 L562,384 L563,383 L564,383 L565,382 L568,382 L569,381 L571,381 L572,380 L574,380 L575,379 L577,379 L578,378 L579,378 L580,377 L582,377 L583,376 L584,376 L585,375 L587,375 L588,374 L589,374 L590,373 L592,373 L593,372 L594,372 L595,371 L597,371 L598,370 L599,370 L600,369 L602,369 L603,368 L605,368 L606,367 L620,367 L621,368 L623,368 L624,369 L625,369 L626,370 L627,370 L629,372 L630,372 L636,378 L637,378 L638,379 L638,375 L637,374 L637,371 L636,370 L636,367 L635,366 L635,364 L634,363 L634,361 L633,360 L633,359 L631,357 L631,356 L628,353 L628,352 L617,341 L616,341 L614,339 L613,339 L612,338 L610,338 L609,337 L607,337 Z M524,610 L525,609 L528,609 L532,613 L532,614 L533,613 L533,611 L535,609 L539,609 L544,614 L544,625 L543,626 L543,627 L539,631 L532,631 L528,635 L520,635 L517,638 L516,638 L515,639 L512,639 L511,640 L498,640 L496,638 L495,638 L495,639 L493,641 L491,641 L490,642 L473,642 L469,638 L468,639 L467,639 L466,640 L453,640 L449,636 L449,635 L448,636 L448,637 L446,639 L444,639 L443,640 L437,640 L436,639 L435,639 L431,635 L429,635 L428,636 L424,636 L423,635 L421,635 L418,632 L418,631 L417,630 L417,622 L419,620 L425,620 L426,621 L427,621 L429,623 L430,622 L430,620 L433,617 L436,617 L437,616 L440,616 L441,617 L442,617 L443,618 L444,618 L445,619 L445,620 L447,622 L447,619 L451,615 L454,615 L455,614 L460,614 L461,615 L463,615 L466,618 L466,619 L467,620 L468,619 L468,618 L472,614 L486,614 L487,615 L489,615 L490,616 L491,616 L494,619 L494,620 L495,620 L495,619 L500,614 L501,614 L502,613 L504,613 L505,612 L508,612 L509,611 L514,611 L515,612 L516,612 L517,613 L517,614 L518,615 L519,614 L519,613 L522,610 Z M519,588 L520,587 L533,587 L534,588 L541,588 L542,589 L545,589 L546,590 L548,590 L549,591 L551,591 L552,592 L553,592 L554,593 L556,593 L557,594 L558,594 L559,595 L560,595 L561,596 L562,596 L563,597 L564,597 L567,600 L566,601 L562,601 L561,600 L558,600 L557,599 L553,599 L552,598 L548,598 L547,597 L541,597 L540,596 L521,596 L520,597 L514,597 L513,598 L511,598 L510,599 L508,599 L507,600 L505,600 L504,601 L500,601 L499,602 L465,602 L464,603 L458,603 L457,604 L453,604 L452,605 L448,605 L447,606 L444,606 L443,607 L440,607 L439,608 L436,608 L435,609 L432,609 L431,610 L429,610 L428,611 L425,611 L424,612 L421,612 L420,613 L415,613 L414,614 L411,614 L410,613 L414,609 L415,609 L416,608 L417,608 L419,606 L420,606 L421,605 L423,605 L424,604 L426,604 L427,603 L428,603 L429,602 L432,602 L433,601 L435,601 L436,600 L438,600 L439,599 L442,599 L443,598 L446,598 L447,597 L450,597 L451,596 L455,596 L456,595 L460,595 L461,594 L466,594 L467,593 L500,593 L501,592 L504,592 L505,591 L507,591 L508,590 L510,590 L511,589 L513,589 L514,588 Z M508,38 L509,38 L510,39 L511,39 L512,40 L513,40 L514,41 L515,41 L516,42 L517,42 L518,43 L519,43 L520,44 L521,44 L522,45 L523,45 L525,47 L526,47 L527,48 L528,48 L530,50 L531,50 L533,52 L534,52 L535,53 L536,53 L539,56 L538,57 L535,57 L534,56 L532,56 L531,55 L529,55 L528,54 L525,54 L524,53 L521,53 L520,52 L517,52 L516,51 L513,51 L512,50 L509,50 L508,49 L504,49 L503,48 L499,48 L498,47 L494,47 L493,46 L489,46 L488,45 L482,45 L481,44 L474,44 L473,43 L462,43 L461,42 L427,42 L426,43 L409,43 L408,44 L396,44 L395,45 L386,45 L385,46 L377,46 L376,47 L369,47 L368,48 L362,48 L361,49 L356,49 L355,50 L350,50 L349,51 L344,51 L343,52 L339,52 L338,53 L335,53 L334,54 L330,54 L329,55 L326,55 L325,56 L321,56 L320,57 L318,57 L317,58 L314,58 L313,59 L310,59 L309,60 L307,60 L306,61 L303,61 L302,62 L300,62 L299,63 L296,63 L295,64 L293,64 L292,65 L290,65 L289,66 L287,66 L286,67 L284,67 L283,68 L281,68 L280,69 L278,69 L277,70 L276,70 L275,71 L273,71 L272,72 L270,72 L269,73 L268,73 L267,74 L265,74 L264,75 L263,75 L262,76 L261,76 L260,77 L259,77 L258,78 L256,78 L255,79 L254,79 L253,80 L252,80 L251,81 L250,81 L249,82 L247,82 L246,83 L245,83 L244,84 L243,84 L242,85 L241,85 L240,86 L239,86 L238,87 L236,87 L235,88 L234,88 L233,89 L232,89 L231,90 L230,90 L229,91 L228,91 L227,92 L226,92 L225,93 L224,93 L223,94 L222,94 L221,95 L220,95 L219,96 L218,96 L217,97 L216,97 L214,99 L213,99 L212,100 L211,100 L210,101 L209,101 L207,103 L206,103 L205,104 L204,104 L202,106 L201,106 L200,107 L199,107 L196,110 L195,110 L193,112 L192,112 L190,114 L189,114 L186,117 L185,117 L181,121 L180,121 L174,127 L173,127 L161,139 L161,140 L154,147 L154,148 L150,152 L150,153 L147,156 L147,157 L144,160 L144,161 L142,163 L142,164 L140,166 L140,167 L138,169 L138,170 L136,172 L136,173 L134,175 L134,176 L132,178 L132,179 L131,180 L131,181 L129,183 L129,184 L128,185 L128,186 L127,187 L127,188 L125,190 L125,191 L124,192 L124,193 L123,194 L123,195 L122,196 L122,197 L120,199 L120,200 L119,201 L119,202 L118,203 L118,204 L117,205 L117,206 L116,207 L116,208 L114,210 L114,211 L113,212 L113,213 L111,215 L111,217 L110,218 L111,217 L112,217 L120,209 L121,209 L126,204 L127,204 L129,202 L130,202 L132,200 L133,200 L134,199 L135,199 L136,198 L137,199 L137,201 L127,211 L127,212 L122,217 L122,218 L120,220 L120,221 L117,224 L117,225 L115,227 L115,228 L114,229 L114,230 L113,231 L113,232 L112,233 L112,234 L111,235 L111,236 L110,237 L110,238 L109,239 L109,241 L108,242 L108,245 L107,246 L107,250 L106,251 L106,256 L105,257 L105,263 L104,264 L104,273 L103,274 L103,314 L104,315 L104,316 L104,313 L105,312 L105,308 L106,307 L106,304 L107,303 L107,301 L108,300 L108,297 L109,296 L109,295 L110,294 L110,293 L111,292 L111,290 L112,289 L112,288 L114,286 L114,285 L116,283 L117,283 L118,284 L118,287 L117,288 L117,302 L116,303 L116,324 L117,325 L117,343 L118,344 L118,355 L119,356 L119,366 L120,367 L120,376 L121,377 L121,384 L122,385 L122,392 L123,393 L123,400 L124,401 L124,406 L125,407 L125,413 L126,414 L126,419 L127,420 L127,424 L128,425 L128,430 L129,431 L129,434 L130,435 L130,438 L131,439 L131,442 L130,443 L130,444 L129,445 L129,446 L128,447 L128,448 L127,449 L127,451 L126,452 L126,453 L125,454 L125,456 L124,457 L124,458 L123,459 L123,461 L122,462 L122,465 L121,466 L121,470 L120,471 L120,476 L119,477 L119,504 L120,505 L120,510 L121,511 L121,514 L122,515 L122,518 L123,519 L123,521 L124,522 L124,524 L125,525 L125,527 L126,528 L126,529 L127,530 L127,532 L128,533 L128,534 L129,535 L129,536 L130,537 L130,538 L131,539 L131,540 L132,541 L132,542 L133,543 L133,544 L134,545 L134,546 L135,547 L135,548 L136,549 L136,550 L137,551 L137,552 L138,553 L138,554 L139,555 L139,556 L140,557 L140,558 L141,559 L141,560 L142,561 L142,562 L143,563 L143,564 L144,565 L144,566 L146,568 L146,569 L147,570 L147,571 L149,573 L149,574 L150,575 L150,576 L152,578 L152,579 L154,581 L154,582 L156,584 L156,585 L158,587 L158,588 L160,590 L160,591 L162,593 L162,594 L164,596 L164,597 L166,599 L166,600 L168,602 L168,603 L170,605 L170,606 L172,608 L172,609 L173,610 L173,611 L175,613 L175,614 L176,615 L176,616 L177,617 L177,618 L179,620 L179,621 L183,625 L183,626 L186,629 L187,629 L190,632 L191,632 L192,633 L193,633 L194,634 L195,634 L196,635 L199,635 L200,636 L206,636 L207,637 L208,637 L209,636 L215,636 L216,635 L219,635 L220,634 L221,634 L222,633 L223,633 L225,631 L226,631 L227,630 L228,631 L228,632 L229,633 L229,635 L230,636 L230,637 L231,638 L231,640 L232,641 L232,643 L233,644 L233,645 L234,646 L234,648 L235,649 L235,650 L236,651 L236,652 L237,653 L237,655 L238,656 L238,657 L239,658 L239,659 L240,660 L240,661 L241,662 L241,663 L242,664 L242,665 L243,666 L243,667 L244,668 L244,669 L246,671 L246,672 L247,673 L247,674 L248,675 L248,676 L249,677 L249,678 L251,680 L251,681 L252,682 L252,683 L254,685 L254,686 L255,687 L255,688 L257,690 L257,691 L259,693 L259,694 L261,696 L261,697 L264,700 L264,701 L267,704 L267,705 L271,709 L271,710 L275,714 L275,715 L281,721 L281,722 L315,756 L316,756 L322,762 L323,762 L328,767 L329,767 L333,771 L334,771 L337,774 L338,774 L341,777 L342,777 L345,780 L346,780 L349,783 L350,783 L352,785 L353,785 L355,787 L356,787 L358,789 L359,789 L361,791 L362,791 L364,793 L365,793 L366,794 L367,794 L369,796 L370,796 L371,797 L372,797 L374,799 L375,799 L376,800 L377,800 L378,801 L379,801 L381,803 L382,803 L383,804 L384,804 L385,805 L386,805 L387,806 L388,806 L389,807 L390,807 L391,808 L392,808 L393,809 L394,809 L395,810 L396,810 L397,811 L399,811 L400,812 L401,812 L402,813 L403,813 L404,814 L405,814 L406,815 L408,815 L409,816 L410,816 L411,817 L413,817 L414,818 L416,818 L417,819 L418,819 L419,820 L422,820 L423,821 L425,821 L426,822 L428,822 L429,823 L432,823 L433,824 L436,824 L437,825 L441,825 L442,826 L446,826 L447,827 L452,827 L453,828 L461,828 L462,829 L490,829 L491,828 L497,828 L498,827 L503,827 L504,826 L507,826 L508,825 L511,825 L512,824 L515,824 L516,823 L518,823 L519,822 L522,822 L523,821 L524,821 L525,820 L527,820 L528,819 L530,819 L531,818 L532,818 L533,817 L534,817 L535,816 L536,816 L537,815 L538,815 L539,814 L540,814 L541,813 L542,813 L543,812 L544,812 L545,811 L546,811 L547,810 L548,810 L550,808 L551,808 L553,806 L554,806 L555,805 L556,805 L559,802 L560,802 L562,800 L563,800 L566,797 L567,797 L571,793 L572,793 L591,774 L591,773 L595,769 L595,768 L597,766 L597,765 L600,762 L600,761 L602,759 L602,758 L604,756 L604,755 L606,753 L606,752 L608,750 L608,749 L610,747 L610,746 L612,744 L612,743 L613,742 L613,741 L615,739 L615,738 L616,737 L616,736 L618,734 L618,733 L619,732 L619,731 L621,729 L621,728 L622,727 L622,726 L623,725 L623,724 L625,722 L625,721 L626,720 L626,719 L627,718 L627,717 L629,715 L629,714 L630,713 L630,712 L631,711 L631,710 L632,709 L632,708 L634,706 L634,705 L635,704 L635,703 L636,702 L636,701 L637,700 L637,699 L638,698 L638,697 L640,695 L640,694 L641,693 L641,692 L642,691 L642,690 L643,689 L643,688 L644,687 L644,686 L645,685 L645,684 L646,683 L646,682 L647,681 L647,680 L648,679 L648,678 L649,677 L649,676 L650,675 L650,674 L651,673 L651,672 L652,671 L652,670 L653,669 L653,668 L654,667 L654,665 L655,664 L655,663 L656,662 L656,661 L657,660 L657,658 L658,657 L658,656 L659,655 L659,653 L660,652 L660,651 L661,650 L661,648 L662,647 L662,645 L663,644 L663,643 L664,642 L664,640 L665,639 L665,637 L666,636 L666,633 L667,632 L667,630 L668,629 L668,627 L669,626 L669,623 L670,622 L670,619 L671,618 L671,615 L672,614 L672,610 L673,609 L673,605 L674,604 L674,600 L675,599 L675,593 L676,592 L676,585 L677,584 L677,574 L678,573 L678,538 L677,537 L677,526 L676,525 L676,516 L675,515 L675,509 L674,508 L674,502 L673,501 L673,490 L674,489 L674,484 L675,483 L675,477 L676,476 L676,468 L677,467 L677,457 L678,456 L678,429 L677,428 L677,425 L676,424 L676,422 L675,421 L675,420 L671,416 L671,415 L676,410 L676,409 L678,407 L678,406 L679,405 L679,404 L680,403 L680,402 L681,401 L681,400 L682,399 L682,398 L683,397 L683,395 L684,394 L684,392 L685,391 L685,387 L686,386 L686,382 L687,381 L687,358 L688,357 L688,342 L689,341 L689,335 L690,334 L690,328 L691,327 L691,321 L692,320 L692,308 L693,307 L693,298 L692,297 L692,287 L691,286 L691,281 L690,280 L690,276 L689,275 L689,272 L688,271 L688,268 L687,267 L687,265 L686,264 L686,262 L685,261 L685,259 L684,258 L684,256 L683,255 L683,254 L682,253 L682,251 L681,250 L681,249 L680,248 L680,247 L679,246 L679,245 L678,244 L678,243 L677,242 L677,241 L676,240 L676,239 L675,238 L675,237 L674,236 L674,235 L673,234 L673,233 L672,232 L672,231 L673,230 L674,231 L675,231 L686,242 L686,243 L689,246 L689,247 L691,249 L691,250 L693,252 L693,253 L694,254 L694,255 L695,256 L695,257 L696,258 L696,259 L697,260 L697,261 L697,253 L696,252 L696,248 L695,247 L695,243 L694,242 L694,240 L693,239 L693,237 L692,236 L692,234 L691,233 L691,232 L690,231 L690,230 L689,229 L689,227 L688,226 L688,225 L687,224 L687,223 L685,221 L685,220 L684,219 L684,218 L681,215 L681,214 L677,210 L676,210 L673,207 L672,207 L669,204 L668,204 L667,203 L666,203 L665,202 L664,202 L663,201 L662,201 L661,200 L660,200 L659,199 L658,199 L657,198 L655,198 L654,197 L652,197 L651,196 L647,196 L645,194 L646,193 L648,193 L649,192 L651,192 L652,191 L655,191 L656,190 L658,190 L659,189 L660,189 L661,188 L663,188 L664,187 L665,187 L666,186 L667,186 L669,184 L670,184 L672,182 L673,182 L679,176 L679,175 L681,173 L681,172 L683,170 L683,169 L684,168 L684,167 L685,166 L685,165 L686,164 L686,163 L687,162 L687,160 L688,159 L688,158 L687,158 L686,159 L686,160 L675,171 L674,171 L672,173 L671,173 L670,174 L669,174 L667,176 L665,176 L664,175 L667,172 L667,171 L669,169 L669,168 L670,167 L670,166 L671,165 L671,164 L673,162 L673,161 L674,160 L674,158 L675,157 L675,156 L676,155 L676,153 L677,152 L677,150 L678,149 L678,147 L679,146 L679,141 L680,140 L680,125 L679,124 L679,120 L678,119 L678,117 L677,116 L677,115 L676,114 L676,113 L675,112 L675,111 L673,109 L673,108 L671,106 L671,105 L665,99 L665,98 L664,97 L663,97 L664,98 L664,100 L665,101 L665,102 L666,103 L666,105 L667,106 L667,108 L668,109 L668,111 L669,112 L669,116 L670,117 L670,128 L669,129 L669,134 L668,135 L668,138 L667,139 L667,141 L666,142 L666,144 L665,145 L665,146 L664,147 L664,148 L663,149 L663,150 L662,151 L662,152 L660,154 L660,155 L647,168 L646,168 L644,170 L643,170 L642,171 L641,171 L640,170 L640,169 L641,168 L641,167 L642,166 L642,165 L643,164 L643,163 L644,162 L644,161 L645,160 L645,159 L646,158 L646,156 L647,155 L647,152 L648,151 L648,146 L649,145 L649,123 L648,122 L648,119 L647,118 L647,115 L646,114 L646,112 L645,111 L645,109 L646,108 L651,113 L651,114 L653,116 L653,117 L655,119 L655,120 L656,121 L656,122 L657,123 L657,124 L658,125 L658,126 L658,124 L657,123 L657,119 L656,118 L656,117 L655,116 L655,115 L654,114 L654,113 L653,112 L653,111 L652,110 L652,109 L649,106 L649,105 L636,92 L636,91 L623,78 L622,78 L619,75 L618,75 L616,73 L615,73 L614,72 L613,72 L612,71 L611,71 L610,70 L609,70 L607,68 L605,68 L604,67 L603,67 L602,66 L601,66 L600,65 L599,65 L598,64 L596,64 L595,63 L594,63 L593,62 L591,62 L590,61 L589,61 L588,60 L586,60 L585,59 L584,59 L583,58 L581,58 L580,57 L578,57 L577,56 L575,56 L574,55 L572,55 L571,54 L568,54 L567,53 L565,53 L564,52 L562,52 L561,51 L558,51 L557,50 L555,50 L554,49 L551,49 L550,48 L547,48 L546,47 L543,47 L542,46 L539,46 L538,45 L536,45 L535,44 L531,44 L530,43 L528,43 L527,42 L524,42 L523,41 L520,41 L519,40 L516,40 L515,39 L511,39 L510,38 Z M404,748 L405,747 L406,748 L406,749 L405,750 L404,749 Z M405,745 L406,744 L407,745 L407,747 L406,748 L405,747 Z M330,703 L331,702 L332,703 L332,704 L331,705 L330,704 Z M313,666 L314,665 L315,666 L315,669 L316,670 L316,674 L317,675 L317,678 L318,679 L318,681 L319,682 L319,685 L320,686 L320,688 L321,689 L321,691 L322,692 L322,695 L323,696 L323,698 L324,699 L324,702 L325,703 L325,705 L326,706 L326,708 L327,709 L327,712 L328,713 L328,714 L327,715 L324,712 L324,711 L323,710 L323,709 L322,708 L322,707 L321,706 L321,705 L320,704 L320,702 L319,701 L319,700 L318,699 L318,696 L317,695 L317,693 L316,692 L316,688 L315,687 L315,683 L314,682 L314,674 L313,673 Z M146,443 L147,442 L152,442 L153,443 L155,443 L156,444 L157,444 L163,450 L163,451 L165,453 L165,454 L166,455 L166,456 L167,457 L167,458 L168,459 L168,460 L169,461 L169,463 L170,464 L170,465 L171,466 L171,467 L172,468 L172,470 L173,471 L173,472 L174,473 L174,475 L175,476 L175,477 L176,478 L176,479 L177,480 L177,481 L178,482 L178,483 L179,484 L180,484 L180,480 L181,479 L182,479 L183,480 L183,481 L184,482 L184,483 L186,485 L186,486 L187,487 L187,488 L188,489 L188,490 L189,491 L189,492 L190,493 L190,495 L187,498 L186,498 L185,499 L185,500 L184,501 L184,504 L186,506 L186,507 L188,509 L188,514 L187,515 L187,517 L186,518 L186,519 L185,520 L185,523 L184,524 L184,528 L183,529 L183,548 L184,549 L184,552 L185,553 L185,554 L188,557 L189,557 L190,558 L193,558 L194,559 L196,559 L200,563 L200,564 L201,565 L201,566 L207,572 L211,572 L212,571 L212,567 L211,566 L211,564 L210,563 L210,562 L209,561 L209,560 L203,554 L202,554 L200,552 L199,552 L194,547 L194,546 L193,545 L193,542 L192,541 L192,536 L193,535 L193,531 L194,530 L194,527 L195,526 L195,525 L196,524 L196,522 L197,521 L197,520 L198,519 L198,518 L199,517 L199,516 L201,514 L201,513 L203,511 L205,513 L205,514 L206,515 L206,517 L207,518 L207,520 L208,521 L208,524 L209,525 L209,528 L210,529 L210,533 L211,534 L211,538 L212,539 L212,544 L213,545 L213,549 L214,550 L214,553 L215,554 L215,558 L216,559 L216,563 L217,564 L217,567 L218,568 L218,571 L219,572 L219,575 L220,576 L220,579 L221,580 L221,583 L222,584 L222,586 L223,587 L223,591 L224,592 L224,595 L225,596 L225,599 L226,600 L226,604 L227,605 L227,608 L228,609 L228,614 L229,615 L229,616 L228,617 L228,618 L224,622 L223,622 L221,624 L220,624 L219,625 L217,625 L216,626 L212,626 L211,627 L205,627 L204,626 L201,626 L200,625 L198,625 L197,624 L196,624 L194,622 L193,622 L186,615 L186,614 L184,612 L184,611 L183,610 L183,609 L182,608 L182,606 L181,605 L181,604 L179,602 L179,601 L178,600 L178,599 L175,596 L175,595 L172,592 L172,591 L169,588 L169,587 L167,585 L167,584 L165,582 L165,581 L162,578 L162,577 L160,575 L160,574 L158,572 L158,571 L156,569 L156,568 L154,566 L154,565 L153,564 L153,563 L151,561 L151,560 L150,559 L150,558 L149,557 L149,556 L147,554 L147,553 L146,552 L146,551 L145,550 L145,549 L144,548 L144,547 L143,546 L143,544 L142,543 L142,542 L141,541 L141,540 L140,539 L140,538 L139,537 L139,536 L138,535 L138,533 L137,532 L137,531 L136,530 L136,529 L135,528 L135,526 L134,525 L134,524 L133,523 L133,521 L132,520 L132,519 L131,518 L131,515 L130,514 L130,511 L129,510 L129,503 L128,502 L128,489 L129,488 L129,474 L130,473 L130,468 L131,467 L131,465 L132,464 L132,461 L133,460 L133,458 L134,457 L134,456 L135,455 L135,454 L136,453 L136,452 L137,451 L137,450 L139,448 L139,447 L142,444 L143,444 L144,443 Z M147,327 L148,326 L149,326 L150,327 L150,328 L149,329 L149,331 L148,332 L148,334 L147,335 L147,338 L146,339 L146,341 L145,342 L145,346 L144,347 L144,349 L143,350 L143,352 L142,353 L141,352 L141,343 L142,342 L142,339 L143,338 L143,336 L144,335 L144,333 L145,332 L145,331 L146,330 L146,329 L147,328 Z M176,317 L177,317 L178,318 L176,320 L176,321 L175,322 L175,323 L174,324 L174,325 L172,327 L172,328 L171,329 L171,330 L170,331 L170,332 L169,333 L169,334 L168,335 L168,336 L167,337 L167,338 L166,339 L166,340 L165,341 L165,342 L164,343 L164,345 L163,346 L163,347 L162,348 L162,350 L161,351 L161,352 L160,353 L160,356 L159,357 L159,359 L158,360 L158,362 L157,363 L157,366 L156,367 L156,369 L155,370 L155,374 L154,375 L154,378 L153,379 L153,383 L152,384 L152,386 L151,387 L150,386 L150,370 L151,369 L151,365 L152,364 L152,360 L153,359 L153,356 L154,355 L154,353 L155,352 L155,351 L156,350 L156,348 L157,347 L157,346 L158,345 L158,343 L159,342 L159,341 L160,340 L160,339 L161,338 L161,337 L163,335 L163,334 L164,333 L164,332 L166,330 L166,329 L168,327 L168,326 L171,323 L171,322 Z M660,300 L661,299 L663,301 L663,302 L664,303 L664,304 L665,305 L665,306 L666,307 L666,309 L667,310 L667,313 L668,314 L668,328 L667,329 L666,328 L666,326 L665,325 L665,318 L664,317 L664,313 L663,312 L663,309 L662,308 L662,306 L661,305 L661,303 L660,302 Z M268,273 L269,272 L270,272 L271,273 L273,273 L274,274 L275,274 L276,275 L278,275 L279,276 L281,276 L282,277 L284,277 L285,278 L288,278 L289,279 L291,279 L292,280 L294,280 L295,281 L298,281 L299,282 L301,282 L302,283 L305,283 L306,284 L309,284 L310,285 L314,285 L315,286 L319,286 L320,287 L325,287 L327,289 L319,297 L318,297 L316,299 L315,299 L314,300 L313,300 L311,302 L310,302 L309,303 L308,303 L307,304 L305,304 L304,305 L303,305 L302,306 L301,306 L300,307 L298,307 L297,308 L295,308 L294,309 L293,309 L292,310 L290,310 L289,311 L287,311 L286,312 L283,312 L282,313 L280,313 L279,314 L276,314 L275,315 L271,315 L270,316 L265,316 L264,317 L259,317 L258,318 L249,318 L248,319 L230,319 L229,318 L220,318 L219,317 L215,317 L214,316 L211,316 L210,315 L207,315 L206,314 L204,314 L203,313 L202,313 L201,312 L199,312 L198,311 L197,311 L196,310 L195,310 L194,309 L193,309 L192,308 L191,308 L189,306 L190,305 L193,305 L194,306 L196,306 L197,307 L199,307 L200,308 L203,308 L204,309 L207,309 L208,310 L212,310 L213,311 L218,311 L217,311 L216,310 L214,310 L213,309 L212,309 L211,308 L210,308 L209,307 L207,307 L206,306 L205,306 L204,305 L203,305 L202,304 L201,304 L199,302 L198,302 L197,301 L196,301 L193,298 L192,298 L186,292 L187,291 L188,291 L190,293 L191,293 L192,294 L193,294 L194,295 L195,295 L196,296 L197,296 L198,297 L199,297 L200,298 L202,298 L203,299 L204,299 L205,300 L207,300 L208,301 L210,301 L211,302 L212,302 L213,303 L216,303 L217,304 L220,304 L221,305 L225,305 L226,306 L232,306 L233,307 L241,307 L242,308 L269,308 L270,307 L277,307 L278,306 L282,306 L283,305 L286,305 L287,304 L289,304 L290,303 L292,303 L293,302 L295,302 L296,301 L297,301 L298,300 L299,300 L300,299 L301,299 L302,298 L303,298 L304,297 L305,297 L307,295 L308,295 L309,294 L310,294 L312,292 L313,292 L314,291 L313,291 L312,290 L308,290 L307,289 L304,289 L303,288 L300,288 L299,287 L296,287 L295,286 L293,286 L292,285 L290,285 L289,284 L288,284 L287,283 L285,283 L284,282 L283,282 L282,281 L281,281 L280,280 L279,280 L278,279 L277,279 L276,278 L275,278 L274,277 L273,277 L271,275 L270,275 Z M288,219 L289,218 L307,218 L308,219 L312,219 L313,220 L316,220 L317,221 L319,221 L320,222 L322,222 L323,223 L325,223 L326,224 L328,224 L329,225 L331,225 L332,226 L333,226 L334,227 L336,227 L337,228 L339,228 L340,229 L341,229 L342,230 L343,230 L344,231 L345,231 L346,232 L347,232 L348,233 L347,234 L327,234 L326,233 L320,233 L319,232 L314,232 L313,231 L309,231 L308,230 L306,230 L305,229 L303,229 L302,228 L300,228 L303,231 L304,231 L306,233 L307,233 L309,235 L310,235 L311,236 L312,236 L314,238 L315,238 L316,239 L317,239 L319,241 L320,241 L321,242 L322,242 L324,244 L325,244 L326,245 L327,245 L328,246 L329,246 L330,247 L331,247 L332,248 L333,248 L334,249 L335,249 L336,250 L337,250 L338,251 L340,251 L341,252 L344,252 L345,253 L348,253 L349,254 L352,254 L353,255 L351,257 L347,257 L346,258 L322,258 L321,257 L316,257 L315,256 L313,256 L314,257 L316,257 L317,258 L318,258 L319,259 L320,259 L321,260 L323,260 L324,261 L326,261 L327,262 L329,262 L330,263 L333,263 L334,264 L338,264 L339,265 L344,265 L345,266 L371,266 L372,265 L379,265 L380,264 L384,264 L385,265 L384,266 L383,266 L382,267 L381,267 L380,268 L377,268 L376,269 L374,269 L373,270 L369,270 L368,271 L364,271 L363,272 L357,272 L356,273 L344,273 L343,274 L328,274 L327,273 L317,273 L316,272 L310,272 L309,271 L304,271 L303,270 L300,270 L299,269 L295,269 L294,268 L292,268 L291,267 L289,267 L288,266 L286,266 L285,265 L283,265 L282,264 L281,264 L280,263 L278,263 L277,262 L276,262 L275,261 L274,261 L272,259 L271,259 L270,258 L269,258 L267,256 L266,256 L265,255 L264,255 L262,253 L261,253 L260,252 L259,252 L258,251 L257,251 L256,250 L255,250 L254,249 L253,249 L251,247 L251,246 L250,245 L250,243 L245,243 L244,244 L241,244 L240,245 L236,245 L235,244 L236,243 L236,242 L238,240 L239,240 L241,238 L242,238 L244,236 L245,236 L247,234 L248,234 L249,233 L250,233 L252,231 L253,231 L254,230 L255,230 L256,229 L257,229 L259,227 L260,227 L261,226 L262,226 L263,225 L265,225 L266,224 L267,224 L268,223 L270,223 L271,222 L273,222 L274,221 L277,221 L278,220 L281,220 L282,219 Z M557,216 L558,216 L559,217 L558,218 L558,219 L557,220 L557,221 L556,222 L556,223 L555,224 L555,225 L554,226 L554,227 L553,228 L553,230 L552,231 L553,231 L554,230 L555,230 L556,229 L557,229 L558,228 L559,228 L560,227 L561,227 L562,226 L563,226 L564,225 L565,225 L566,224 L568,224 L569,223 L570,223 L571,222 L573,222 L574,221 L575,221 L581,227 L581,228 L587,234 L587,235 L589,237 L589,238 L591,240 L591,241 L593,243 L593,244 L594,245 L594,246 L595,247 L595,248 L596,249 L596,250 L597,251 L597,252 L598,253 L598,254 L599,255 L599,256 L600,257 L600,259 L601,260 L601,261 L602,262 L602,263 L603,264 L603,265 L604,266 L604,267 L605,268 L605,269 L606,270 L606,271 L607,272 L607,273 L608,274 L608,276 L609,277 L609,278 L610,279 L610,280 L611,281 L611,283 L612,284 L612,286 L613,287 L613,288 L614,289 L614,291 L615,292 L615,293 L616,294 L616,296 L617,297 L617,299 L618,300 L618,301 L619,302 L619,304 L620,305 L620,306 L621,307 L621,309 L622,310 L622,312 L623,313 L623,314 L624,315 L624,317 L625,318 L625,319 L626,320 L626,322 L627,323 L627,325 L628,326 L628,327 L629,328 L629,330 L630,331 L630,333 L631,334 L631,336 L632,337 L632,339 L633,340 L633,342 L634,343 L634,345 L635,346 L635,348 L636,349 L636,351 L637,352 L637,355 L638,356 L638,358 L639,359 L639,361 L640,362 L640,365 L641,366 L641,368 L642,369 L642,372 L643,373 L643,376 L644,377 L644,381 L645,382 L645,387 L646,388 L646,393 L647,394 L647,401 L648,402 L648,407 L649,408 L649,415 L650,416 L650,423 L651,424 L651,432 L652,433 L652,442 L653,443 L653,454 L654,455 L654,465 L655,466 L655,477 L656,478 L656,488 L657,489 L657,496 L658,497 L658,503 L659,504 L659,511 L660,512 L660,519 L661,520 L661,531 L662,532 L662,559 L661,560 L661,561 L660,562 L660,574 L659,575 L659,581 L658,582 L657,582 L656,581 L656,573 L656,575 L655,576 L655,581 L654,582 L654,589 L653,590 L653,598 L652,599 L652,606 L651,607 L651,612 L650,613 L650,616 L649,617 L648,616 L648,614 L647,613 L647,588 L647,591 L646,592 L646,600 L645,601 L645,611 L644,612 L644,620 L643,621 L643,629 L642,630 L642,634 L641,635 L640,635 L639,634 L639,627 L638,626 L638,618 L637,617 L637,611 L636,610 L636,606 L635,605 L635,603 L634,602 L634,601 L633,600 L633,602 L632,603 L632,609 L631,610 L631,620 L630,621 L630,629 L629,630 L628,629 L628,627 L627,626 L627,625 L626,624 L626,622 L625,621 L625,620 L623,618 L623,637 L622,638 L622,653 L621,654 L620,654 L619,653 L619,650 L618,649 L618,645 L617,644 L617,642 L616,642 L616,645 L615,646 L615,667 L614,668 L614,672 L613,673 L611,671 L611,668 L610,667 L610,663 L609,662 L609,657 L608,656 L608,653 L607,653 L607,660 L608,661 L608,684 L607,685 L606,685 L605,684 L605,681 L604,680 L604,676 L603,675 L603,672 L602,671 L602,670 L601,669 L601,668 L600,667 L600,672 L601,673 L601,679 L602,680 L602,692 L603,693 L603,704 L602,705 L599,702 L599,701 L598,700 L598,699 L597,698 L597,697 L595,695 L595,694 L595,697 L596,698 L596,705 L597,706 L597,718 L596,719 L595,719 L594,718 L593,718 L589,714 L588,714 L587,713 L587,714 L588,715 L588,717 L589,718 L589,719 L590,720 L590,724 L591,725 L591,726 L590,727 L590,730 L589,731 L588,731 L586,729 L586,728 L585,727 L585,726 L583,724 L583,723 L583,728 L584,729 L584,738 L583,739 L583,740 L582,741 L580,739 L580,737 L579,736 L579,734 L578,733 L578,732 L577,731 L577,729 L576,728 L576,727 L575,726 L575,728 L576,729 L576,736 L577,737 L577,738 L576,739 L576,749 L574,751 L573,750 L573,749 L572,748 L572,745 L571,744 L571,743 L570,742 L570,741 L569,740 L569,739 L567,737 L567,736 L564,733 L564,734 L565,735 L565,737 L566,738 L566,741 L567,742 L567,754 L566,755 L566,757 L565,758 L564,758 L562,756 L562,753 L561,752 L561,751 L560,750 L560,749 L559,748 L559,749 L558,750 L557,749 L556,749 L556,752 L555,753 L555,756 L554,757 L554,759 L552,761 L552,762 L550,764 L549,763 L549,760 L548,759 L548,755 L547,754 L547,753 L546,752 L546,751 L545,750 L545,749 L544,749 L543,748 L543,749 L544,750 L544,754 L545,755 L545,757 L544,758 L544,763 L543,764 L543,765 L540,768 L539,768 L538,767 L538,756 L537,755 L537,753 L536,752 L536,761 L535,762 L535,763 L534,764 L534,765 L529,770 L528,769 L528,765 L529,764 L529,755 L528,755 L528,757 L527,758 L527,761 L526,762 L526,763 L525,764 L525,766 L524,767 L524,768 L523,769 L523,770 L522,771 L521,771 L520,770 L520,758 L519,757 L519,753 L518,752 L518,750 L517,749 L517,748 L516,747 L516,746 L515,745 L515,744 L514,743 L513,743 L513,746 L514,747 L514,750 L515,751 L515,756 L516,757 L516,758 L515,759 L515,762 L511,766 L510,766 L508,764 L508,761 L507,760 L507,757 L506,756 L506,755 L506,759 L507,760 L507,767 L506,768 L506,770 L504,772 L502,772 L501,771 L501,769 L501,770 L499,772 L498,771 L498,768 L497,767 L497,766 L496,765 L496,764 L495,764 L495,765 L493,767 L493,768 L492,769 L492,770 L490,772 L489,771 L489,770 L488,769 L489,768 L488,767 L489,766 L489,759 L490,758 L489,758 L489,759 L488,760 L488,762 L487,763 L487,764 L486,765 L486,767 L485,768 L485,769 L484,770 L483,770 L481,768 L481,765 L480,764 L480,761 L479,760 L479,758 L478,757 L478,756 L477,755 L477,754 L476,753 L476,752 L474,750 L474,761 L475,762 L475,767 L473,769 L471,767 L471,766 L470,765 L470,764 L469,763 L469,761 L468,760 L468,759 L467,758 L467,757 L465,755 L465,756 L466,757 L466,760 L467,761 L467,764 L468,765 L468,775 L466,777 L464,775 L464,774 L463,773 L463,772 L462,771 L462,769 L461,768 L461,766 L460,765 L460,763 L458,761 L458,759 L457,758 L457,757 L456,756 L456,755 L456,761 L457,762 L457,773 L456,774 L453,771 L453,770 L450,767 L450,766 L449,765 L449,763 L448,762 L448,758 L446,760 L446,761 L445,762 L445,766 L444,767 L444,769 L445,770 L445,774 L446,775 L446,776 L445,777 L444,777 L441,774 L441,773 L440,772 L440,771 L439,770 L439,769 L438,768 L438,758 L439,757 L439,755 L440,754 L440,752 L436,756 L436,757 L434,759 L434,760 L432,762 L431,762 L430,761 L430,753 L429,754 L429,756 L428,757 L428,763 L427,764 L427,773 L426,774 L425,774 L423,772 L423,771 L421,769 L421,766 L420,765 L420,758 L421,757 L421,753 L422,752 L422,750 L421,751 L421,752 L419,754 L419,755 L418,756 L418,757 L417,758 L417,759 L416,760 L416,761 L414,763 L413,763 L412,762 L412,761 L411,760 L411,757 L410,756 L410,741 L411,740 L411,739 L410,739 L407,742 L406,742 L400,748 L400,749 L399,750 L399,752 L398,753 L398,755 L397,756 L397,757 L396,758 L395,757 L395,753 L396,752 L396,750 L397,749 L397,747 L398,746 L398,744 L399,743 L399,741 L400,740 L400,738 L401,737 L401,736 L400,737 L400,738 L399,739 L399,740 L398,741 L398,743 L397,744 L397,745 L396,746 L396,748 L394,750 L393,749 L393,747 L392,746 L392,745 L393,744 L393,738 L394,737 L394,735 L395,734 L395,733 L396,732 L396,731 L397,730 L397,729 L396,730 L395,730 L394,731 L393,731 L387,737 L387,738 L386,739 L386,740 L385,741 L385,742 L384,743 L384,745 L383,746 L383,748 L382,749 L382,750 L380,752 L379,751 L379,740 L380,739 L380,737 L381,736 L381,733 L382,732 L382,730 L383,729 L383,726 L384,725 L384,723 L383,724 L383,726 L382,727 L382,728 L381,729 L381,732 L380,733 L380,736 L379,737 L378,736 L378,733 L377,732 L377,724 L376,723 L376,722 L376,723 L375,724 L375,726 L374,727 L374,729 L373,730 L373,731 L372,732 L372,733 L371,734 L370,734 L369,733 L369,732 L368,731 L368,726 L367,725 L367,718 L366,717 L366,711 L365,710 L365,704 L364,703 L364,696 L363,696 L363,698 L362,699 L362,704 L361,705 L361,725 L362,726 L362,734 L361,735 L360,734 L360,732 L359,731 L359,727 L358,726 L358,722 L357,721 L357,715 L356,714 L356,708 L355,707 L355,701 L354,700 L354,692 L353,691 L353,684 L352,683 L352,681 L352,684 L351,685 L351,699 L352,700 L352,712 L351,713 L349,711 L349,709 L348,708 L348,705 L347,704 L347,699 L346,698 L346,694 L345,693 L345,689 L344,688 L344,684 L343,683 L343,679 L342,678 L342,671 L341,670 L341,675 L340,676 L340,699 L339,700 L338,699 L338,698 L337,697 L337,696 L336,695 L336,693 L335,692 L335,691 L334,690 L334,688 L333,687 L333,685 L332,684 L332,682 L331,681 L331,679 L330,678 L330,676 L329,675 L329,672 L328,671 L328,667 L327,666 L327,660 L326,659 L326,653 L325,654 L325,675 L326,676 L326,682 L327,683 L327,687 L328,688 L328,691 L329,692 L329,695 L330,696 L330,698 L331,699 L331,702 L330,703 L329,702 L329,701 L328,700 L328,698 L327,697 L327,696 L326,695 L326,693 L325,692 L325,690 L324,689 L324,687 L323,686 L323,684 L322,683 L322,681 L321,680 L321,678 L320,677 L320,675 L319,674 L319,672 L318,671 L318,669 L317,668 L317,667 L316,666 L316,664 L315,663 L315,661 L314,660 L314,657 L313,656 L313,651 L312,650 L312,643 L311,642 L311,641 L311,665 L310,666 L310,688 L309,689 L307,687 L307,686 L306,685 L306,682 L305,681 L305,679 L304,678 L304,675 L303,674 L303,670 L302,669 L302,665 L301,664 L301,661 L300,660 L300,656 L299,655 L299,651 L298,650 L298,645 L297,644 L297,639 L296,638 L296,633 L295,632 L295,626 L294,625 L294,619 L293,618 L293,613 L293,618 L292,619 L292,632 L293,633 L293,647 L294,648 L294,656 L295,657 L295,662 L296,663 L296,665 L295,666 L293,664 L293,662 L292,661 L292,659 L291,658 L291,655 L290,654 L290,651 L289,650 L289,647 L288,646 L288,644 L287,643 L287,640 L286,639 L286,636 L285,635 L285,632 L284,631 L284,628 L283,627 L283,624 L282,623 L282,619 L282,632 L283,633 L283,640 L284,641 L284,648 L285,649 L285,654 L286,655 L286,658 L285,659 L283,657 L283,655 L282,654 L282,652 L281,651 L281,650 L280,649 L280,647 L279,646 L279,644 L278,643 L278,640 L277,639 L277,637 L276,636 L276,632 L275,631 L275,628 L274,627 L274,623 L273,622 L273,616 L272,615 L272,608 L271,607 L271,620 L272,621 L272,632 L273,633 L273,644 L272,645 L271,644 L271,643 L270,642 L270,639 L269,638 L269,635 L268,634 L268,631 L267,630 L267,626 L266,625 L266,620 L265,619 L265,616 L264,615 L264,611 L263,610 L263,606 L262,605 L262,602 L261,601 L261,597 L260,596 L260,590 L259,589 L259,583 L258,582 L258,578 L257,579 L257,589 L258,590 L258,610 L259,611 L259,616 L258,617 L257,616 L257,614 L256,613 L256,610 L255,609 L255,607 L254,606 L254,602 L253,601 L253,597 L252,596 L252,593 L251,592 L251,589 L250,588 L250,585 L249,584 L249,581 L248,580 L248,576 L247,575 L247,572 L246,571 L246,568 L245,567 L245,565 L244,564 L244,562 L243,561 L243,562 L242,563 L241,563 L240,562 L240,560 L239,559 L239,554 L238,553 L238,550 L237,549 L237,545 L236,544 L236,540 L235,539 L235,535 L234,534 L234,530 L233,529 L233,525 L232,524 L232,520 L231,519 L231,515 L230,514 L230,509 L229,508 L229,504 L228,503 L228,500 L227,499 L227,494 L226,493 L226,489 L225,488 L225,484 L224,483 L224,478 L223,477 L223,472 L222,471 L222,466 L221,465 L221,460 L220,459 L220,434 L221,433 L221,429 L222,428 L222,425 L223,424 L223,422 L224,421 L224,419 L225,418 L225,416 L226,415 L226,414 L227,413 L227,411 L228,410 L228,409 L229,408 L229,406 L230,405 L230,404 L231,403 L231,402 L232,401 L232,399 L233,398 L233,397 L234,396 L234,395 L235,394 L235,393 L236,392 L236,391 L237,390 L237,389 L238,388 L238,387 L239,386 L239,385 L240,384 L240,383 L242,381 L242,380 L243,379 L243,378 L244,377 L244,376 L245,375 L245,374 L246,373 L246,372 L247,371 L247,370 L248,369 L248,368 L249,367 L249,365 L250,364 L250,363 L251,362 L251,361 L252,360 L252,358 L253,357 L253,356 L254,355 L254,353 L255,352 L255,350 L256,349 L256,348 L257,347 L257,345 L255,347 L255,348 L251,352 L251,353 L248,356 L247,355 L247,353 L248,352 L248,351 L249,350 L249,349 L251,347 L251,346 L252,345 L252,344 L254,342 L254,341 L256,339 L256,338 L259,335 L259,334 L264,329 L265,329 L266,328 L270,328 L271,327 L275,327 L276,326 L279,326 L280,325 L283,325 L284,324 L287,324 L288,323 L291,323 L292,322 L294,322 L295,321 L297,321 L298,320 L300,320 L301,319 L303,319 L304,318 L306,318 L307,317 L308,317 L309,316 L311,316 L312,315 L313,315 L314,314 L316,314 L317,313 L318,313 L319,312 L320,312 L321,311 L322,311 L323,310 L324,310 L325,309 L327,309 L328,308 L329,308 L330,307 L331,307 L333,305 L334,305 L335,304 L336,304 L337,303 L338,303 L340,301 L341,301 L343,299 L344,299 L346,297 L347,297 L348,296 L353,296 L354,295 L359,295 L360,294 L365,294 L366,293 L370,293 L371,292 L374,292 L375,291 L378,291 L379,290 L381,290 L382,289 L385,289 L386,288 L388,288 L389,287 L391,287 L392,286 L394,286 L395,285 L396,285 L397,284 L399,284 L400,283 L401,283 L402,282 L403,282 L404,281 L405,281 L406,280 L408,280 L409,279 L410,279 L411,278 L412,278 L413,277 L414,277 L415,276 L416,276 L417,275 L418,275 L419,274 L420,274 L422,272 L423,272 L424,271 L425,271 L426,272 L426,273 L417,282 L416,282 L414,284 L413,284 L411,286 L410,286 L409,287 L408,287 L407,288 L406,288 L405,289 L404,289 L403,290 L402,290 L401,291 L400,291 L399,292 L398,292 L397,293 L396,293 L395,294 L393,294 L392,295 L391,295 L390,296 L388,296 L387,297 L385,297 L384,298 L381,298 L380,299 L377,299 L376,300 L370,300 L369,301 L357,301 L359,301 L360,302 L362,302 L363,303 L368,303 L369,304 L388,304 L389,303 L393,303 L394,302 L397,302 L398,301 L401,301 L402,300 L404,300 L405,299 L407,299 L408,298 L409,298 L410,297 L412,297 L413,296 L414,296 L415,295 L416,295 L417,294 L418,294 L419,293 L420,293 L421,292 L422,292 L423,291 L424,291 L426,289 L427,289 L428,288 L429,288 L431,286 L432,286 L434,284 L435,284 L437,282 L438,282 L441,279 L442,279 L446,275 L447,275 L452,270 L453,270 L459,264 L459,263 L467,255 L467,254 L471,250 L471,249 L475,245 L475,244 L478,241 L478,240 L479,239 L480,240 L480,242 L478,244 L478,245 L477,246 L477,247 L475,249 L475,250 L473,252 L473,253 L471,255 L471,256 L469,258 L469,259 L467,261 L467,262 L465,264 L465,265 L461,269 L461,270 L457,274 L457,275 L453,279 L454,278 L455,278 L462,271 L462,270 L473,259 L473,258 L479,252 L479,251 L489,241 L490,241 L492,239 L493,239 L494,238 L496,238 L497,237 L498,237 L499,236 L501,236 L502,235 L504,235 L505,234 L506,234 L507,233 L509,233 L510,232 L511,232 L512,231 L514,231 L515,230 L516,230 L517,229 L519,229 L520,228 L521,228 L522,227 L524,227 L525,226 L526,226 L527,225 L528,225 L529,224 L531,224 L532,223 L533,223 L534,222 L536,222 L537,221 L539,221 L540,220 L541,220 L542,219 L544,219 L545,218 L546,218 L547,219 L547,227 L546,228 L546,231 L548,229 L548,228 L550,226 L550,225 L552,223 L552,222 L555,219 L555,218 Z M281,202 L282,201 L294,201 L295,202 L293,204 L290,204 L289,205 L287,205 L286,206 L284,206 L283,207 L281,207 L280,208 L278,208 L277,209 L276,209 L275,210 L274,210 L273,211 L272,211 L271,212 L270,212 L269,213 L268,213 L266,215 L265,215 L263,217 L262,217 L260,219 L259,219 L256,222 L255,222 L251,226 L250,226 L246,230 L245,230 L241,234 L240,234 L237,237 L236,237 L233,240 L232,240 L228,244 L227,244 L224,247 L223,247 L221,249 L220,249 L218,251 L217,251 L216,252 L215,252 L214,253 L213,253 L212,254 L211,254 L210,255 L209,255 L208,256 L206,256 L205,257 L202,257 L201,258 L198,258 L197,259 L191,259 L190,260 L183,260 L182,261 L175,261 L174,262 L170,262 L169,261 L172,258 L173,258 L174,257 L175,257 L177,255 L178,255 L179,254 L180,254 L183,251 L184,251 L187,248 L188,248 L191,245 L192,245 L194,243 L195,243 L198,240 L199,240 L201,238 L202,238 L204,236 L205,236 L207,234 L208,234 L210,232 L211,232 L214,229 L215,229 L218,226 L219,226 L223,222 L224,222 L227,219 L228,219 L229,220 L229,221 L228,222 L228,223 L226,225 L226,226 L224,228 L224,229 L221,232 L221,233 L211,243 L210,243 L209,244 L211,244 L212,243 L213,243 L214,242 L215,242 L216,241 L217,241 L218,240 L219,240 L220,239 L221,239 L222,238 L223,238 L225,236 L226,236 L229,233 L230,233 L235,228 L236,228 L242,222 L243,222 L247,218 L248,218 L251,215 L252,215 L255,212 L256,212 L258,210 L259,210 L260,209 L261,209 L262,208 L263,208 L264,207 L265,207 L266,206 L267,206 L268,205 L269,205 L270,204 L272,204 L273,203 L276,203 L277,202 Z M190,167 L191,166 L192,167 L192,168 L185,175 L185,176 L170,191 L169,191 L164,196 L163,196 L160,199 L159,199 L156,202 L155,202 L151,206 L150,206 L147,209 L146,209 L145,208 L146,207 L146,206 L147,205 L147,204 L148,203 L148,202 L150,200 L150,199 L156,193 L156,192 L158,190 L159,190 L167,182 L168,182 L171,179 L172,179 L175,176 L176,176 L178,174 L179,174 L181,172 L182,172 L184,170 L185,170 L187,168 L188,168 L189,167 Z M227,162 L228,161 L229,161 L230,162 L229,163 L229,164 L224,169 L224,170 L219,175 L219,176 L215,180 L215,181 L211,185 L211,186 L208,189 L208,190 L206,192 L206,193 L205,194 L205,195 L203,197 L203,198 L202,199 L202,200 L201,201 L201,202 L200,203 L200,206 L201,207 L201,208 L185,224 L184,223 L184,222 L186,220 L186,219 L188,217 L188,216 L190,214 L190,213 L192,211 L192,210 L194,208 L194,207 L195,206 L195,205 L196,204 L196,203 L197,202 L197,201 L198,200 L198,198 L197,198 L195,200 L194,200 L192,202 L191,202 L189,204 L188,204 L186,206 L185,206 L183,208 L182,208 L180,210 L179,210 L177,212 L176,212 L175,213 L174,213 L172,215 L171,215 L169,217 L168,217 L167,218 L166,218 L164,220 L163,220 L161,222 L160,222 L158,224 L157,224 L154,227 L153,227 L151,229 L150,229 L146,233 L145,233 L142,236 L141,236 L138,239 L137,239 L136,238 L138,236 L138,235 L142,231 L142,230 L146,226 L146,225 L151,220 L151,219 L155,215 L155,214 L159,210 L159,209 L169,199 L170,199 L173,196 L174,196 L175,195 L176,195 L178,193 L179,193 L181,191 L182,191 L184,189 L185,189 L187,187 L188,187 L190,185 L191,185 L193,183 L194,183 L196,181 L197,181 L200,178 L201,178 L203,176 L204,176 L206,174 L207,174 L209,172 L210,172 L212,170 L213,170 L215,168 L216,168 L217,167 L218,167 L219,166 L220,166 L222,164 L223,164 L224,163 L225,163 L226,162 Z M315,152 L316,151 L339,151 L340,152 L345,152 L346,153 L350,153 L351,154 L353,154 L354,155 L356,155 L357,156 L358,156 L359,157 L361,157 L362,158 L363,158 L364,159 L365,159 L366,160 L368,160 L369,161 L370,161 L371,162 L372,162 L374,164 L375,164 L376,165 L377,165 L378,166 L379,166 L380,167 L381,167 L382,168 L383,168 L384,169 L385,169 L387,171 L388,171 L389,172 L390,172 L391,173 L392,173 L394,175 L395,175 L396,176 L397,176 L398,177 L399,177 L400,178 L401,178 L402,179 L403,179 L404,180 L405,180 L406,181 L407,181 L408,182 L409,182 L410,183 L412,183 L413,184 L414,184 L415,185 L414,186 L405,186 L404,185 L401,185 L400,184 L397,184 L396,183 L393,183 L392,182 L389,182 L388,181 L385,181 L384,180 L382,180 L381,179 L378,179 L377,178 L375,178 L374,177 L372,177 L371,176 L369,176 L368,175 L366,175 L365,174 L363,174 L362,173 L361,173 L360,172 L358,172 L357,171 L355,171 L354,170 L353,170 L352,169 L351,169 L352,170 L353,170 L356,173 L357,173 L361,177 L362,177 L371,186 L372,186 L379,193 L380,193 L383,196 L384,196 L386,198 L387,198 L389,200 L390,200 L391,201 L392,201 L393,202 L394,202 L395,203 L396,203 L397,204 L398,204 L399,205 L400,205 L401,206 L402,206 L403,207 L405,207 L406,208 L407,208 L408,209 L410,209 L411,210 L413,210 L414,211 L416,211 L417,212 L420,212 L421,213 L424,213 L425,214 L428,214 L429,215 L435,215 L436,216 L468,216 L469,215 L472,215 L473,216 L472,217 L471,217 L470,218 L467,218 L466,219 L460,219 L459,220 L453,220 L452,221 L444,221 L443,222 L412,222 L411,221 L403,221 L402,220 L398,220 L397,219 L393,219 L392,218 L388,218 L387,217 L384,217 L383,216 L381,216 L380,215 L377,215 L376,214 L374,214 L373,213 L371,213 L370,212 L368,212 L367,211 L365,211 L364,210 L362,210 L361,209 L360,209 L359,208 L358,208 L357,207 L355,207 L354,206 L353,206 L352,205 L351,205 L350,204 L348,204 L347,203 L346,203 L345,202 L344,202 L343,201 L342,201 L341,200 L340,200 L339,199 L337,199 L336,198 L335,198 L334,197 L333,197 L332,196 L330,196 L329,195 L327,195 L326,194 L325,194 L324,193 L322,193 L321,192 L319,192 L318,191 L316,191 L315,190 L313,190 L312,189 L310,189 L309,188 L307,188 L306,187 L302,187 L301,186 L297,186 L296,185 L279,185 L278,184 L278,183 L279,182 L281,182 L282,181 L286,181 L287,180 L313,180 L314,181 L318,181 L319,182 L322,182 L321,181 L320,181 L319,180 L318,180 L317,179 L316,179 L315,178 L313,178 L312,177 L310,177 L309,176 L307,176 L306,175 L305,175 L304,174 L301,174 L300,173 L298,173 L297,172 L294,172 L293,171 L287,171 L286,170 L277,170 L276,171 L271,171 L270,170 L273,167 L274,167 L275,166 L276,166 L277,165 L278,165 L279,164 L280,164 L281,163 L282,163 L283,162 L284,162 L285,161 L287,161 L288,160 L289,160 L290,159 L291,159 L292,158 L293,158 L294,157 L295,157 L296,156 L298,156 L299,155 L301,155 L302,154 L304,154 L305,153 L308,153 L309,152 Z M481,151 L482,150 L506,150 L507,151 L512,151 L513,152 L515,152 L516,153 L518,153 L519,154 L521,154 L522,155 L523,155 L524,156 L525,156 L526,157 L527,157 L528,158 L529,158 L530,159 L531,159 L532,160 L533,160 L535,162 L536,162 L537,163 L538,163 L540,165 L541,165 L546,170 L545,171 L544,171 L543,170 L542,170 L541,169 L540,169 L538,167 L537,167 L536,166 L535,166 L534,165 L533,165 L532,164 L530,164 L529,163 L528,163 L527,162 L524,162 L523,161 L521,161 L520,160 L516,160 L515,159 L511,159 L510,158 L501,158 L500,157 L498,157 L499,158 L501,158 L502,159 L503,159 L504,160 L505,160 L506,161 L507,161 L508,162 L509,162 L510,163 L511,163 L512,164 L513,164 L514,165 L515,165 L516,166 L516,167 L515,168 L501,168 L500,167 L491,167 L490,166 L484,166 L483,165 L478,165 L477,164 L473,164 L472,163 L468,163 L467,162 L463,162 L462,161 L460,161 L459,160 L455,160 L454,159 L451,159 L450,158 L448,158 L447,157 L445,157 L444,156 L443,156 L442,155 L443,154 L451,154 L452,153 L463,153 L464,152 L472,152 L473,151 Z M384,101 L385,100 L403,100 L404,101 L410,101 L411,102 L414,102 L415,103 L418,103 L419,104 L422,104 L423,105 L425,105 L426,106 L428,106 L429,107 L430,107 L431,108 L430,109 L426,109 L425,108 L420,108 L419,107 L393,107 L392,108 L385,108 L384,109 L379,109 L378,110 L373,110 L372,111 L368,111 L367,112 L363,112 L362,113 L358,113 L357,114 L353,114 L352,115 L348,115 L347,116 L343,116 L342,115 L344,113 L345,113 L346,112 L347,112 L348,111 L350,111 L351,110 L352,110 L353,109 L355,109 L356,108 L357,108 L358,107 L360,107 L361,106 L363,106 L364,105 L366,105 L367,104 L369,104 L370,103 L372,103 L373,102 L377,102 L378,101 Z M580,70 L581,69 L582,69 L584,71 L585,71 L588,74 L589,74 L592,77 L593,77 L599,83 L600,83 L612,95 L612,96 L616,100 L616,101 L618,103 L618,104 L620,106 L620,107 L621,108 L621,109 L622,110 L622,111 L623,112 L623,113 L624,114 L624,116 L625,117 L625,119 L626,120 L626,122 L627,123 L627,126 L628,127 L628,131 L629,132 L629,144 L628,145 L626,143 L626,141 L625,140 L625,138 L624,137 L624,136 L623,135 L623,133 L622,132 L622,130 L620,128 L620,139 L619,140 L619,146 L618,147 L618,150 L616,152 L615,151 L615,133 L614,132 L614,128 L613,127 L613,124 L612,123 L612,121 L611,120 L611,118 L610,117 L610,115 L609,114 L609,113 L608,112 L608,111 L607,110 L607,108 L606,107 L606,106 L604,104 L604,103 L603,102 L603,101 L602,100 L602,99 L600,97 L600,96 L598,94 L598,93 L596,91 L596,90 L593,87 L593,86 L589,82 L589,81 L584,76 L584,75 L580,71 Z M518,70 L519,69 L532,69 L533,70 L543,70 L544,71 L550,71 L551,72 L554,72 L555,73 L558,73 L559,74 L561,74 L562,75 L563,75 L564,76 L565,76 L566,77 L567,77 L568,78 L569,78 L571,80 L572,80 L574,82 L575,82 L579,86 L580,86 L591,97 L591,98 L593,100 L593,101 L595,103 L595,104 L596,105 L596,106 L597,107 L597,108 L598,109 L598,111 L599,112 L599,113 L598,114 L596,112 L596,111 L592,107 L592,106 L582,96 L581,96 L577,92 L576,92 L574,90 L573,90 L572,89 L571,89 L569,87 L568,87 L567,86 L566,86 L565,85 L564,85 L563,84 L562,84 L561,83 L559,83 L558,82 L556,82 L555,81 L554,81 L553,80 L551,80 L550,79 L548,79 L547,78 L545,78 L544,77 L542,77 L541,76 L538,76 L537,75 L533,75 L532,74 L527,74 L526,73 L520,73 L519,72 L514,72 L513,71 L514,70 Z M358,69 L359,68 L394,68 L395,69 L411,69 L412,70 L422,70 L423,71 L431,71 L432,72 L438,72 L439,73 L444,73 L445,74 L449,74 L450,75 L454,75 L455,76 L458,76 L459,77 L462,77 L463,78 L466,78 L467,79 L469,79 L470,80 L472,80 L473,81 L475,81 L476,82 L478,82 L479,83 L481,83 L482,84 L484,84 L485,85 L486,85 L487,86 L488,86 L489,87 L491,87 L492,88 L493,88 L494,89 L495,89 L496,90 L498,90 L499,91 L500,91 L501,92 L502,92 L503,93 L504,93 L506,95 L507,95 L508,96 L509,96 L510,97 L511,97 L512,98 L513,98 L514,99 L515,99 L517,101 L518,101 L520,103 L521,103 L523,105 L524,105 L526,107 L527,107 L529,109 L530,109 L534,113 L535,113 L539,117 L540,117 L548,125 L547,126 L546,126 L544,124 L543,124 L541,122 L540,122 L538,120 L537,120 L536,119 L535,119 L533,117 L532,117 L531,116 L530,116 L529,115 L528,115 L526,113 L525,113 L524,112 L523,112 L522,111 L521,111 L520,110 L519,110 L518,109 L517,109 L516,108 L515,108 L514,107 L513,107 L512,106 L511,106 L510,105 L509,105 L508,104 L506,104 L505,103 L504,103 L503,102 L501,102 L500,101 L499,101 L498,100 L496,100 L495,99 L494,99 L493,98 L491,98 L490,97 L488,97 L487,96 L486,96 L485,95 L483,95 L482,94 L480,94 L479,93 L477,93 L476,92 L473,92 L472,91 L470,91 L469,90 L466,90 L465,89 L462,89 L461,88 L459,88 L458,87 L455,87 L454,86 L450,86 L449,85 L446,85 L445,84 L441,84 L440,83 L436,83 L435,82 L431,82 L430,81 L424,81 L423,80 L418,80 L417,79 L409,79 L408,78 L397,78 L396,77 L368,77 L367,78 L359,78 L358,79 L353,79 L352,80 L348,80 L347,81 L344,81 L343,82 L340,82 L339,83 L337,83 L336,84 L333,84 L332,85 L329,85 L328,86 L326,86 L325,87 L323,87 L322,88 L319,88 L318,89 L316,89 L315,90 L313,90 L312,91 L310,91 L309,92 L308,92 L307,93 L305,93 L304,94 L303,94 L302,95 L300,95 L299,96 L298,96 L297,97 L296,97 L295,98 L293,98 L292,99 L291,99 L290,100 L289,100 L288,101 L287,101 L285,103 L284,103 L283,104 L282,104 L281,105 L280,105 L278,107 L277,107 L275,109 L274,109 L271,112 L270,112 L265,117 L264,117 L262,119 L262,120 L261,121 L262,120 L263,120 L264,119 L265,119 L266,118 L267,118 L268,117 L270,117 L271,116 L272,116 L273,115 L276,115 L277,114 L279,114 L280,113 L283,113 L284,112 L288,112 L289,111 L293,111 L294,110 L299,110 L300,109 L308,109 L309,108 L334,108 L335,107 L342,107 L343,108 L341,110 L340,110 L339,111 L336,111 L335,112 L333,112 L332,113 L329,113 L328,114 L325,114 L324,115 L321,115 L320,116 L317,116 L316,117 L314,117 L313,118 L311,118 L310,119 L308,119 L307,120 L305,120 L304,121 L302,121 L301,122 L300,122 L299,123 L297,123 L296,124 L295,124 L294,125 L293,125 L292,126 L291,126 L290,127 L289,127 L288,128 L287,128 L286,129 L285,129 L282,132 L285,132 L286,131 L289,131 L290,130 L293,130 L294,129 L299,129 L300,128 L306,128 L307,127 L315,127 L316,126 L350,126 L351,127 L357,127 L358,128 L362,128 L363,129 L367,129 L368,130 L370,130 L371,131 L374,131 L375,132 L377,132 L378,133 L379,133 L380,134 L381,134 L382,135 L381,136 L377,136 L376,135 L370,135 L369,134 L362,134 L361,133 L322,133 L321,134 L314,134 L313,135 L307,135 L306,136 L302,136 L301,137 L298,137 L297,138 L294,138 L293,139 L290,139 L289,140 L287,140 L286,141 L284,141 L283,142 L281,142 L280,143 L278,143 L277,144 L275,144 L274,145 L272,145 L271,146 L270,146 L269,147 L268,147 L267,148 L266,148 L265,149 L264,149 L263,150 L262,150 L261,151 L260,151 L259,152 L258,152 L257,153 L256,153 L254,155 L253,155 L250,158 L249,158 L237,170 L236,169 L236,168 L237,167 L237,166 L239,164 L239,163 L241,161 L241,160 L244,157 L244,156 L246,154 L246,153 L249,150 L249,149 L252,146 L252,145 L256,141 L256,140 L261,135 L261,134 L265,130 L263,130 L262,131 L261,131 L260,132 L259,132 L258,133 L256,133 L255,134 L254,134 L253,135 L252,135 L251,134 L251,133 L252,132 L252,131 L254,129 L254,128 L255,127 L255,126 L256,125 L255,126 L254,126 L253,127 L252,127 L250,129 L249,129 L248,130 L247,130 L246,131 L245,131 L243,133 L242,133 L240,135 L239,135 L237,137 L236,137 L233,140 L232,140 L230,142 L229,142 L228,141 L228,140 L230,138 L230,137 L232,135 L232,134 L236,130 L236,129 L249,116 L250,116 L253,113 L254,113 L256,111 L257,111 L258,110 L257,110 L256,111 L254,111 L253,112 L251,112 L250,113 L249,113 L248,114 L246,114 L245,115 L243,115 L242,116 L240,116 L239,117 L237,117 L236,118 L235,118 L234,119 L232,119 L231,120 L229,120 L228,121 L227,121 L226,122 L224,122 L223,123 L222,123 L221,124 L219,124 L218,125 L217,125 L216,126 L215,126 L214,127 L212,127 L211,128 L210,128 L209,129 L208,129 L207,130 L206,130 L205,131 L204,131 L202,133 L201,133 L200,134 L199,134 L198,135 L197,135 L195,137 L194,137 L193,138 L192,138 L190,140 L189,140 L188,141 L187,141 L185,143 L184,143 L182,145 L181,145 L179,147 L178,146 L178,145 L190,133 L191,133 L195,129 L196,129 L199,126 L200,126 L203,123 L204,123 L206,121 L207,121 L210,118 L211,118 L213,116 L214,116 L215,115 L216,115 L218,113 L219,113 L221,111 L222,111 L223,110 L224,110 L226,108 L227,108 L228,107 L229,107 L231,105 L232,105 L233,104 L234,104 L235,103 L236,103 L237,102 L238,102 L239,101 L240,101 L241,100 L242,100 L243,99 L244,99 L245,98 L246,98 L247,97 L248,97 L249,96 L250,96 L251,95 L252,95 L253,94 L254,94 L255,93 L256,93 L257,92 L259,92 L260,91 L261,91 L262,90 L263,90 L264,89 L266,89 L267,88 L268,88 L269,87 L271,87 L272,86 L273,86 L274,85 L275,85 L276,84 L278,84 L279,83 L281,83 L282,82 L283,82 L284,81 L286,81 L287,80 L289,80 L290,79 L293,79 L294,78 L296,78 L297,77 L300,77 L301,76 L304,76 L305,75 L308,75 L309,74 L312,74 L313,73 L317,73 L318,72 L323,72 L324,71 L331,71 L332,70 L342,70 L343,69 Z "/>
</svg>